<svg version="1" xmlns="http://www.w3.org/2000/svg" width="400" height="400" viewBox="0 0 300.000000 300.000000">
	<path d="M165.5 40.2c-.3 1.3-12.2 50.8-26.5 110.1-21.6 89.9-25.7 108.2-24.7 109.8 1 1.6 2.4 1.9 9 1.9 5.4 0 7.9-.4 8.3-1.3.2-.7 12.3-50.3 26.8-110.2C176.9 74 184.5 41 183.8 39.7c-.7-1.4-2.3-1.7-9.3-1.7-7.9 0-8.5.1-9 2.2zM51.3 109.2L13 137.4v9.5l.1 9.6 38.5 28.3C84.7 209 90.4 212.9 92.1 212c1.7-1 1.9-2.2 1.9-12.5v-11.4l-28.5-20.3C49.9 156.6 37 147.2 37 146.9c0-.3 12.8-9.7 28.5-20.9L94 105.7V93.9c0-11.7-.4-13-3.8-12.9-.4 0-17.9 12.7-38.9 28.2zM208.3 81.7c-1 .3-1.3 3.8-1.3 12.3v11.8l28.5 20.3c15.7 11.2 28.5 20.6 28.5 20.9 0 .3-12.7 9.5-28.3 20.5l-28.2 20-.3 11.7c-.2 10.7-.1 11.8 1.7 12.7 1.6.9 7.5-3 40.5-27.2l38.5-28.2.1-9.5v-9.6l-38-27.9c-20.9-15.4-38.6-28.1-39.3-28.2-.7-.1-1.8.1-2.4.4z"/>
</svg>